<svg width="24" height="24" viewBox="0 0 24 24" fill="none" xmlns="http://www.w3.org/2000/svg">
<path fill-rule="evenodd" clip-rule="evenodd" d="M14.5855 5.08573L15.7069 6.20705C15.8944 6.39458 16.1488 6.49994 16.414 6.49994H18.9998C20.1043 6.49994 20.9998 7.39537 20.9998 8.49994V17.4999C20.9998 18.6045 20.1043 19.4999 18.9998 19.4999H4.99976C3.89519 19.4999 2.99976 18.6045 2.99976 17.4999V8.49994C2.99976 7.39537 3.89519 6.49994 4.99976 6.49994H7.58555C7.85076 6.49994 8.10511 6.39458 8.29265 6.20705L9.41397 5.08573C9.78904 4.71065 10.2978 4.49994 10.8282 4.49994H13.1713C13.7018 4.49994 14.2105 4.71065 14.5855 5.08573Z" stroke="#717184" stroke-width="1.5" stroke-linecap="round" stroke-linejoin="round"/>
<circle cx="12" cy="12.4999" r="4" stroke="#717184" stroke-width="1.5" stroke-linecap="round" stroke-linejoin="round"/>
<path d="M18.05 9.50001C18.05 9.52761 18.0276 9.54995 18 9.54994C17.9724 9.54992 17.95 9.52755 17.95 9.49996C17.95 9.47236 17.9723 9.44997 17.9999 9.44994C18.0132 9.44992 18.026 9.45519 18.0354 9.46459C18.0448 9.47398 18.05 9.48673 18.05 9.50001" stroke="#717184" stroke-width="1.5" stroke-linecap="round" stroke-linejoin="round"/>
</svg>