<svg width="14" height="14" viewBox="0 0 14 14" fill="none" xmlns="http://www.w3.org/2000/svg">
<path d="M7 1.26125C8.86905 1.26125 9.09046 1.26839 9.82857 1.30207C10.5111 1.33319 10.8817 1.44723 11.1284 1.54309C11.4551 1.67007 11.6883 1.82176 11.9332 2.0667C12.1782 2.31166 12.3299 2.54484 12.4569 2.87158C12.5527 3.11824 12.6668 3.48889 12.6979 4.17137C12.7316 4.90949 12.7387 5.13089 12.7387 6.99994C12.7387 8.86902 12.7316 9.09043 12.6979 9.82854C12.6668 10.511 12.5527 10.8817 12.4569 11.1283C12.3299 11.4551 12.1782 11.6883 11.9333 11.9332C11.6883 12.1782 11.4551 12.3298 11.1284 12.4568C10.8817 12.5527 10.5111 12.6667 9.82857 12.6978C9.09057 12.7315 8.86919 12.7387 7 12.7387C5.13077 12.7387 4.90942 12.7315 4.17139 12.6978C3.4889 12.6667 3.11825 12.5527 2.87159 12.4568C2.54485 12.3298 2.31167 12.1782 2.06673 11.9332C1.82179 11.6883 1.67008 11.4551 1.54309 11.1283C1.44723 10.8817 1.33319 10.511 1.30207 9.82854C1.2684 9.09043 1.26126 8.86902 1.26126 6.99994C1.26126 5.13089 1.2684 4.90949 1.30207 4.17137C1.33319 3.48889 1.44723 3.11824 1.54309 2.87158C1.67008 2.54484 1.82176 2.31166 2.06673 2.06672C2.31167 1.82176 2.54485 1.67007 2.87159 1.54309C3.11825 1.44723 3.4889 1.33319 4.17139 1.30207C4.90951 1.26839 5.13091 1.26125 7 1.26125ZM7 0C5.0989 0 4.86052 0.00805805 4.1139 0.0421241C3.36883 0.0761069 2.85998 0.194449 2.41473 0.367475C1.95442 0.546364 1.56404 0.785715 1.17487 1.17486C0.785718 1.56404 0.546365 1.95441 0.367504 2.41472C0.19445 2.85997 0.0761071 3.36882 0.0421243 4.11388C0.00805808 4.8605 0 5.09888 0 6.99994C0 8.90103 0.00805808 9.13941 0.0421243 9.88603C0.0761071 10.6311 0.19445 11.1399 0.367504 11.5852C0.546365 12.0455 0.785718 12.4359 1.17487 12.8251C1.56404 13.2142 1.95442 13.4536 2.41473 13.6324C2.85998 13.8055 3.36883 13.9238 4.1139 13.9578C4.86052 13.9919 5.0989 13.9999 7 13.9999C8.90106 13.9999 9.13944 13.9919 9.88606 13.9578C10.6311 13.9238 11.14 13.8055 11.5852 13.6324C12.0455 13.4536 12.4359 13.2142 12.8251 12.8251C13.2142 12.4359 13.4536 12.0455 13.6325 11.5852C13.8055 11.1399 13.9239 10.6311 13.9578 9.88603C13.9919 9.13941 14 8.90103 14 6.99994C14 5.09888 13.9919 4.8605 13.9578 4.11388C13.9239 3.36882 13.8055 2.85997 13.6325 2.41472C13.4536 1.95441 13.2142 1.56404 12.8251 1.17486C12.4359 0.785715 12.0455 0.546364 11.5852 0.367475C11.14 0.194449 10.6311 0.0761069 9.88606 0.0421241C9.13944 0.00805805 8.90106 0 7 0Z" fill="url(#paint0_linear_765_1605)"/>
<path d="M7.0028 3.4082C5.01754 3.4082 3.4082 5.01754 3.4082 7.00276C3.4082 8.98802 5.01754 10.5973 7.0028 10.5973C8.98803 10.5973 10.5974 8.98802 10.5974 7.00276C10.5974 5.01754 8.98803 3.4082 7.0028 3.4082ZM7.0028 9.3361C5.71412 9.3361 4.66946 8.29144 4.66946 7.00276C4.66946 5.71411 5.71412 4.66945 7.0028 4.66945C8.29145 4.66945 9.33611 5.71411 9.33611 7.00276C9.33611 8.29144 8.29145 9.3361 7.0028 9.3361Z" fill="url(#paint1_linear_765_1605)"/>
<path d="M11.5797 3.26445C11.5797 3.72834 11.2036 4.10443 10.7396 4.10443C10.2757 4.10443 9.89966 3.72834 9.89966 3.26445C9.89966 2.80053 10.2757 2.42444 10.7396 2.42444C11.2036 2.42444 11.5797 2.80053 11.5797 3.26445Z" fill="url(#paint2_linear_765_1605)"/>
<defs>
<linearGradient id="paint0_linear_765_1605" x1="14" y1="0" x2="4.76838e-05" y2="14" gradientUnits="userSpaceOnUse">
<stop offset="0.0572917" stop-color="#D800B5"/>
<stop offset="0.385417" stop-color="#FF010A" stop-opacity="0.67"/>
<stop offset="0.713542" stop-color="#FF7800"/>
<stop offset="1" stop-color="#FFCE00"/>
</linearGradient>
<linearGradient id="paint1_linear_765_1605" x1="10.5974" y1="3.4082" x2="3.40823" y2="10.5974" gradientUnits="userSpaceOnUse">
<stop offset="0.0572917" stop-color="#D800B5"/>
<stop offset="0.385417" stop-color="#FF010A" stop-opacity="0.67"/>
<stop offset="0.713542" stop-color="#FF7800"/>
<stop offset="1" stop-color="#FFCE00"/>
</linearGradient>
<linearGradient id="paint2_linear_765_1605" x1="11.5797" y1="2.42444" x2="9.89966" y2="4.10444" gradientUnits="userSpaceOnUse">
<stop offset="0.0572917" stop-color="#D800B5"/>
<stop offset="0.385417" stop-color="#FF010A" stop-opacity="0.67"/>
<stop offset="0.713542" stop-color="#FF7800"/>
<stop offset="1" stop-color="#FFCE00"/>
</linearGradient>
</defs>
</svg>
