<svg width="18" height="18" viewBox="0 0 18 18" fill="none" xmlns="http://www.w3.org/2000/svg">
<path d="M3.01177 4.34495C3.00527 3.60216 3.59171 2.99482 4.32161 2.98843L6.48855 2.96946C6.77298 2.96697 7.02712 3.14998 7.11947 3.4238L8.13569 6.43687C8.24246 6.75344 8.10426 7.10166 7.81144 7.2539L6.32647 8.02594C7.06923 9.66358 8.3823 10.9767 10.0043 11.7037L10.7368 10.1793C10.8812 9.87864 11.2209 9.73193 11.5339 9.83503L14.512 10.8163C14.7826 10.9055 14.9668 11.1608 14.9694 11.4503L14.9887 13.6555C14.9952 14.3983 14.4088 15.0056 13.6788 15.012L13.018 15.0178C7.54375 15.0657 3.06642 10.5884 3.01766 5.01743L3.01177 4.34495Z" stroke="#06B40D" stroke-width="1.3" stroke-linecap="round" stroke-linejoin="round"/>
</svg>
