<svg width="16" height="17" viewBox="0 0 16 17" fill="none" xmlns="http://www.w3.org/2000/svg">
<path d="M5.42079 9.54373C5.57812 9.22967 5.66667 8.87518 5.66667 8.5C5.66667 8.12482 5.57812 7.77033 5.42079 7.45627M5.42079 9.54373C5.03771 10.3084 4.24682 10.8333 3.33333 10.8333C2.04467 10.8333 1 9.78866 1 8.5C1 7.21134 2.04467 6.16667 3.33333 6.16667C4.24682 6.16667 5.03771 6.6916 5.42079 7.45627M5.42079 9.54373L10.5792 12.1229M5.42079 7.45627L10.5792 4.87706M10.5792 4.87706C10.9623 5.64173 11.7532 6.16667 12.6667 6.16667C13.9553 6.16667 15 5.122 15 3.83333C15 2.54467 13.9553 1.5 12.6667 1.5C11.378 1.5 10.3333 2.54467 10.3333 3.83333C10.3333 4.20851 10.4219 4.563 10.5792 4.87706ZM10.5792 12.1229C10.4219 12.437 10.3333 12.7915 10.3333 13.1667C10.3333 14.4553 11.378 15.5 12.6667 15.5C13.9553 15.5 15 14.4553 15 13.1667C15 11.878 13.9553 10.8333 12.6667 10.8333C11.7532 10.8333 10.9623 11.3583 10.5792 12.1229Z" stroke="#1A1A1B" stroke-width="1.5" stroke-linecap="round" stroke-linejoin="round"/>
</svg>